<svg xmlns="http://www.w3.org/2000/svg" width="342" height="323" fill="none" xmlns:v="https://vecta.io/nano"><g clip-path="url(#A)"><path d="M122.186 249.501l-.31-.174c-29.804-16.813-52.492-41.475-63.892-69.439-11.422-28.045-10.371-56.626 2.971-80.476 27.501-49.17 97.228-60.516 158.85-25.917l.311.174c29.804 16.814 52.492 41.476 63.892 69.44 11.422 28.045 10.371 56.626-2.971 80.475-27.501 49.17-97.228 60.517-158.851 25.917zm.625-1.852l.31.174c60.7 34.082 129.277 23.055 156.245-25.177 13.053-23.33 14.068-51.318 2.868-78.807-11.228-27.561-33.628-51.89-63.053-68.491l-.31-.174C158.184 41.088 89.607 52.115 62.626 100.351c-13.053 23.33-14.068 51.318-2.868 78.807 11.228 27.561 33.627 51.89 63.053 68.491z" fill="#000"/><path d="M118.694 257.141c65.436 36.097 141.895 22.538 170.777-30.284s-.75-124.905-66.185-161.002S81.391 43.318 52.509 96.14s.75 124.905 66.185 161.001z" fill="#f95e28"/><g fill="#122315"><path d="M122.458 249.008l-.31-.174c-29.701-16.756-52.297-41.32-63.649-69.167-11.355-27.882-10.32-56.291 2.94-79.993 27.347-48.893 96.744-60.153 158.099-25.703l.31.174c29.701 16.756 52.297 41.32 63.649 69.166 11.355 27.883 10.32 56.291-2.94 79.994-27.347 48.892-96.744 60.152-158.099 25.703zm.085-.884c61.061 34.409 130.147 23.361 157.312-25.225 13.135-23.477 14.159-51.642 2.899-79.289-11.276-27.679-33.759-52.101-63.291-68.773l-.31-.174c-60.977-34.214-129.89-23.092-157.007 25.408-13.134 23.477-14.158 51.642-2.899 79.289 11.276 27.679 33.759 52.101 63.291 68.773l.005-.009zm6.171-48.738c-14.084-11.054-24.758-24.905-30.035-39.007-5.324-14.22-4.888-28.066 1.226-39.009 7.147-12.781 21.189-20.704 39.539-22.312 18.462-1.625 39.012 3.338 57.86 13.978a117.94 117.94 0 0 1 14.78 9.865c14.085 11.054 24.758 24.904 30.035 39.007 5.325 14.219 4.888 28.066-1.226 39.009-7.147 12.781-21.189 20.704-39.539 22.312-18.462 1.625-39.011-3.338-57.86-13.978a117.94 117.94 0 0 1-14.78-9.865zm-31.803-69.591c-5.843 20.656 5.439 46.76 28.733 66.515l1.138-1.132c-8.238-10.121-12.841-22.732-12.934-35.525-.022-2.317-.907-4.586-2.49-6.394-.424-.477-.826-.953-1.229-1.428-6.841-8.122-10.867-15.697-11.641-21.923l-1.572-.122-.005.009zm21.255 30.591c-.734-.571-1.702-.661-2.53-.229a2.33 2.33 0 0 0-1.246 2.219c.892 15.501 8.358 30.219 20.48 40.352l1.213-1.022c-3.908-6.77-5.138-16.545-3.455-27.512.127-.837-.201-1.691-.87-2.214l-1.733-1.336c-4.208-3.306-8.13-6.7-11.668-10.094-.059-.056-.118-.112-.191-.164zm34.503 25.595c-.123-.103-.265-.194-.411-.276-5.536-3.257-10.895-6.731-15.912-10.331-.688-.489-1.555-.578-2.33-.241a2.31 2.31 0 0 0-1.372 1.875c-1.546 13.667 1.649 24.704 8.762 30.287a16.43 16.43 0 0 0 1.386.983l.717.459 10.084-18.036c.881-1.584.488-3.621-.927-4.734l.003.014zm23.876 12.088a2.11 2.11 0 0 0-.529-.308c-5.667-2.433-11.411-5.215-17.066-8.277-1.755-.95-3.976-.29-4.957 1.453l-10.084 18.036.765.373c8.654 4.235 20.276 1.472 31.873-7.563.577-.448.904-1.116.902-1.844s-.337-1.426-.904-1.87zm24.085 8.22c-.167-.127-.353-.22-.554-.265-6.006-1.499-12.318-3.544-18.766-6.074-.799-.312-1.707-.164-2.369.396-8.452 7.143-17.403 11.179-25.195 11.346l-.24 1.568c15.767 5.412 32.878 3.755 46.946-4.539.422-.251.69-.691.721-1.173.035-.491-.177-.962-.557-1.255l.014-.004zm33.738.298c-5.693 2.572-14.233 3.068-24.69 1.421a81.78 81.78 0 0 1-3.711-.664c-1.205-.233-2.421-.019-3.409.619-11.227 7.254-24.864 10.203-38.401 8.302l-.364 1.568c28.912 9.703 56.977 5.794 71.502-9.965l-.922-1.289-.005.008zm-94.398-62.302a3.62 3.62 0 0 0-.472-.31l-15.158-8.556c-.913-.513-2.004-.626-2.999-.299a3.63 3.63 0 0 0-2.211 1.961c-2.586 5.622-4.147 11.616-4.644 17.809-.057.672.182 1.34.654 1.832 4.276 4.445 9.265 8.927 14.838 13.316.631.491 1.455.635 2.205.364a2.34 2.34 0 0 0 1.5-1.679c1.537-6.62 3.993-13.269 7.301-19.78.811-1.6.384-3.555-1.019-4.649l.005-.009zm27.34 15.431c-.149-.118-.308-.219-.471-.311l-20.442-11.534a3.71 3.71 0 0 0-2.919-.322c-.982.301-1.786.974-2.243 1.898-3.621 7.176-6.196 14.462-7.649 21.686-.173.879.148 1.764.856 2.32a207.9 207.9 0 0 0 17.899 11.798c.869.511 1.879.646 2.849.385.962-.266 1.759-.886 2.246-1.759l10.829-19.356a3.8 3.8 0 0 0-.951-4.792l-.004-.013zm-49.428-27.889a3.61 3.61 0 0 0-.471-.31l-17.251-9.732-.356.822c-3.001 6.957.785 17.236 10.661 28.946a2.91 2.91 0 0 0 .372.368c.643.509 1.495.624 2.273.323a2.29 2.29 0 0 0 1.452-1.796 53.01 53.01 0 0 1 4.382-14.028c.758-1.607.328-3.495-1.058-4.579l-.004-.014zm76.76 43.314c-.149-.118-.308-.218-.472-.31l-20.442-11.534c-1.8-1.011-4.078-.371-5.084 1.437l-10.829 19.355c-.896 1.61-.501 3.602.952 4.748.167.128.338.246.532.344 5.937 3.208 11.953 6.109 17.886 8.612 1.712.723 3.687.344 5.023-.961 4.925-4.786 9.394-10.419 13.298-16.743 1.007-1.626.632-3.756-.873-4.93l.009-.018zm22.07 12.449a3.55 3.55 0 0 0-.48-.315l-15.158-8.557c-1.757-.986-3.953-.413-4.999 1.304-3.816 6.226-8.194 11.797-13.02 16.547a2.36 2.36 0 0 0-.696 1.801c.039.68.359 1.303.888 1.714.188.15.395.266.621.348 6.635 2.499 13.036 4.447 19.044 5.799a2.32 2.32 0 0 0 1.891-.392 52.39 52.39 0 0 0 12.722-13.251c1.077-1.609.719-3.809-.817-5.012l.004.014zm6.449 3.587c-1.705-.958-3.882-.42-4.96 1.234-2.704 4.126-5.949 7.845-9.649 11.059-.529.464-.829 1.124-.808 1.818.017.701.352 1.378.894 1.807a2.3 2.3 0 0 0 1.065.462c15.137 2.379 25.836.278 30.185-5.91l.511-.735-17.251-9.732.013-.003zm-90.997-75.972c-.307-.24-.679-.404-1.074-.467-15.137-2.378-25.836-.278-30.185 5.91l-.511.736 17.252 9.731c1.705.958 3.881.419 4.96-1.235 2.703-4.125 5.954-7.853 9.662-11.062a2.33 2.33 0 0 0 .808-1.818 2.36 2.36 0 0 0-.898-1.799l-.014.004zm25.378 6.993a2.14 2.14 0 0 0-.62-.348c-6.627-2.495-13.036-4.447-19.044-5.799-.652-.15-1.343-.004-1.892.392-5.005 3.651-9.287 8.116-12.727 13.259a3.75 3.75 0 0 0 .817 5.012c.149.118.308.219.481.315l15.158 8.557c1.757.986 3.952.413 4.999-1.304 3.815-6.226 8.193-11.797 13.019-16.547a2.36 2.36 0 0 0 .697-1.801c-.04-.68-.36-1.303-.889-1.714l.001-.022zm25.501 11.809a2.49 2.49 0 0 0-.321-.215c-6.818-3.737-13.721-7.056-20.523-9.865-.837-.345-1.812-.177-2.477.449-5.372 5-10.238 11.001-14.453 17.843-1.007 1.626-.632 3.756.873 4.93.15.118.309.219.472.311l20.442 11.534a3.73 3.73 0 0 0 2.838.344 3.67 3.67 0 0 0 2.242-1.773l11.494-20.549c.558-1.004.309-2.302-.6-3.005l.013-.004zm-6.03-29.548c-28.911-9.704-56.976-5.794-71.496 9.956l.921 1.289c5.694-2.572 14.234-3.068 24.691-1.421l2.494.435c1.958.362 3.99-.019 5.722-1.079 11.004-6.732 24.245-9.438 37.3-7.604l.364-1.567.004-.009zm29.291 44.346c-5.922-4.37-12.33-8.559-19.065-12.465-.551-.309-1.179-.401-1.792-.234s-1.117.565-1.425 1.119l-11.493 20.549a3.8 3.8 0 0 0 .95 4.792 3.56 3.56 0 0 0 .472.311l20.442 11.534a3.71 3.71 0 0 0 2.919.322 3.69 3.69 0 0 0 2.243-1.898c3.621-7.176 6.195-14.463 7.644-21.677a2.35 2.35 0 0 0-.857-2.321l-.008-.004-.047-.038.017.01zm4.516 3.444c-.631-.491-1.451-.622-2.205-.364-.759.266-1.314.897-1.5 1.679-1.537 6.62-3.993 13.269-7.301 19.78a3.75 3.75 0 0 0 1.028 4.654c.149.118.308.218.472.31l15.158 8.556c.913.513 2.003.626 2.999.299.991-.318 1.774-1.014 2.21-1.961a52.5 52.5 0 0 0 4.644-17.809c.058-.672-.181-1.34-.654-1.832-4.275-4.445-9.265-8.927-14.837-13.316l-.014.004zm19.137 18.125c-.644-.509-1.496-.624-2.274-.323s-1.321.973-1.452 1.797a52.99 52.99 0 0 1-4.382 14.027c-.758 1.607-.328 3.495 1.058 4.58.149.118.308.218.472.31l17.251 9.732.356-.823c3.001-6.956-.786-17.235-10.661-28.946-.13-.152-.249-.264-.372-.367l.004.013zm-42.684-61.335c-14.931-5.125-31.321-3.87-44.972 3.432-.711.384-1.167 1.06-1.225 1.856-.064.804.263 1.578.886 2.064a2.35 2.35 0 0 0 .851.421c5.372 1.438 10.973 3.3 16.671 5.534a2.34 2.34 0 0 0 2.355-.392c8.457-7.152 17.403-11.18 25.194-11.347l.24-1.568zm26.738 18.078c8.347 10.251 12.935 23.012 12.932 35.956-.005 2.041.732 3.987 2.064 5.473l1.662 1.91c6.846 8.113 10.867 15.697 11.641 21.923l1.572.121c5.843-20.655-5.438-46.759-28.732-66.515l-1.139 1.132zM196.12 112.95c-8.664-4.24-20.277-1.472-31.874 7.562-.572.439-.904 1.116-.902 1.844s.337 1.427.904 1.87a2.13 2.13 0 0 0 .529.309c6.053 2.592 12.176 5.587 18.204 8.892a2.34 2.34 0 0 0 3.161-.905l10.747-19.208-.765-.373-.004.009zm3.259 2.045a16.42 16.42 0 0 0-1.386-.982l-.717-.46-10.742 19.2c-.569 1.021-.317 2.275.604 2.997a1.82 1.82 0 0 0 .27.185c5.947 3.453 11.679 7.148 17.039 10.987a2.36 2.36 0 0 0 2.33.241c.767-.342 1.272-1.046 1.372-1.876 1.546-13.666-1.649-24.704-8.762-30.287l-.008-.005zm11.406 36.666c4.2 3.301 8.127 6.687 11.66 10.09a1.74 1.74 0 0 0 .191.164c.734.571 1.701.66 2.53.228.819-.437 1.3-1.28 1.241-2.21-.892-15.501-8.358-30.219-20.479-40.352l-1.214 1.022c3.909 6.77 5.138 16.545 3.464 27.516a2.35 2.35 0 0 0 .87 2.215l1.745 1.354-.008-.027z"/><path d="M143.509 209.727l-.224-.125c-5.224-2.945-10.209-6.277-14.827-9.903-14.149-11.101-24.855-25.016-30.164-39.182-5.363-14.332-4.925-28.303 1.254-39.345 7.215-12.902 21.366-20.9 39.854-22.51 18.47-1.62 39.012 3.316 57.867 13.902l.224.126c5.224 2.944 10.209 6.277 14.827 9.903 14.14 11.096 24.855 25.016 30.164 39.181 5.364 14.333 4.925 28.304-1.254 39.346-7.21 12.893-21.366 20.899-39.854 22.51-18.47 1.621-39.012-3.316-57.867-13.903zm9.836 1.969c-2.191-.004-4.288-.318-6.265-.951a115.34 115.34 0 0 0 16.303 7.007l.373-1.584c-3.488-.517-6.962-1.366-10.372-2.531l-.322-.112.288-1.837-.005.008zm-24.39-12.627c3.595 2.825 7.419 5.46 11.394 7.885-1.554-1.372-2.914-3.01-4.056-4.9l-1.429 1.207-.264-.216c-2.761-2.311-5.282-4.851-7.542-7.596l-1.152 1.136a99.14 99.14 0 0 0 3.037 2.466l.012.018zm47.08-.841c-.06-.033-.12-.067-.194-.097-5.675-2.438-11.428-5.224-17.101-8.296-1.564-.845-3.54-.262-4.411 1.304l-9.877 17.665.38.191c8.517 4.157 19.979 1.418 31.443-7.521.476-.368.741-.924.746-1.523a1.98 1.98 0 0 0-.747-1.543c-.076-.066-.162-.114-.248-.162l.009-.018zm-40.117-22.638c-.534-.3-1.173-.329-1.741-.081-.632.282-1.056.861-1.136 1.554-1.531 13.516 1.608 24.431 8.614 29.921.431.344.893.671 1.352.963l.356.234 9.877-17.665c.785-1.41.435-3.219-.832-4.214-.111-.085-.235-.166-.359-.247-5.545-3.261-10.912-6.74-15.946-10.35-.069-.039-.125-.081-.194-.12l.009.005zm18.182 36.496l-.138.899c15.575 5.248 32.427 3.57 46.286-4.614.304-.181.504-.5.529-.85a1.05 1.05 0 0 0-.4-.906c-.115-.098-.254-.153-.402-.191-6.023-1.508-12.357-3.554-18.814-6.09a1.93 1.93 0 0 0-1.959.331c-8.407 7.101-17.309 11.152-25.106 11.43l.004-.009zm-36.435-51.537c-.569-.319-1.253-.328-1.846-.014-.684.354-1.074 1.055-1.021 1.834.875 15.287 8.192 29.786 20.078 39.854l.698-.584c-3.825-6.838-5.008-16.575-3.345-27.484a1.96 1.96 0 0 0-.72-1.835l-1.732-1.336-.06-.056c-4.226-3.316-8.126-6.687-11.638-10.066-.051-.052-.106-.094-.153-.132a1.54 1.54 0 0 0-.249-.162l-.012-.019zm46.79 56.17l-.202.852c28.494 9.458 56.086 5.646 70.509-9.727l-.531-.752c-5.76 2.489-14.268 2.947-24.619 1.314-1.162-.187-2.42-.405-3.72-.67-1.099-.219-2.208-.013-3.11.571-11.204 7.233-24.802 10.215-38.313 8.408l-.014.004zm-67.253-86.497c-5.57 20.367 5.543 46.023 28.406 65.537l.62-.605c-8.158-10.145-12.696-22.731-12.795-35.493-.017-2.224-.867-4.393-2.391-6.123a74.74 74.74 0 0 1-1.238-1.433c-6.774-8.039-10.807-15.561-11.687-21.801l-.92-.073.005-.009zm56.137 55.831c.939.993 1.316 2.408 1.035 3.726.98-.948 2.385-1.34 3.715-1.048-.957-1.003-1.335-2.396-1.049-3.723a4.04 4.04 0 0 1-1.746.984c-.653.179-1.316.192-1.95.052l-.005.009zm23.924 12.184a2.86 2.86 0 0 1 .58 1.699c.003.32-.055.628-.161.92l1.006-.832c.772-.656 1.831-.834 2.769-.466l1.133.443c-.373-.448-.59-1.013-.634-1.605a2.81 2.81 0 0 1 .104-.918c-1.369 1.059-3.172 1.353-4.797.759zM131 170.898l.99.761c.789.613 1.176 1.603 1.021 2.594a42.73 42.73 0 0 0-.188 1.291c.263-.329.615-.597 1.021-.778.451-.201.945-.275 1.415-.227l-1.077-.787a2.73 2.73 0 0 1-1.006-2.722l.203-.953c-.292.301-.652.542-1.061.687-.427.158-.875.19-1.313.126l-.005.008zm42.524-7.26c-1.602-.899-3.63-.323-4.534 1.281l-10.829 19.356c-.8 1.436-.444 3.214.848 4.224.15.117.308.218.472.31 5.928 3.203 11.927 6.095 17.851 8.592 1.565.663 3.366.311 4.591-.874 4.897-4.757 9.351-10.363 13.233-16.666.901-1.458.564-3.351-.784-4.403-.132-.108-.273-.199-.42-.281l-20.442-11.535.014-.004zm-27.341-15.43c-.801-.45-1.72-.546-2.602-.28-.874.27-1.591.867-2.004 1.691-3.602 7.141-6.162 14.402-7.613 21.581a1.95 1.95 0 0 0 .707 1.918c5.567 4.114 11.584 8.072 17.86 11.766.774.457 1.679.579 2.547.34.854-.236 1.569-.789 2.002-1.567l10.829-19.356c.795-1.427.437-3.263-.855-4.272a2.83 2.83 0 0 0-.42-.282l-20.442-11.534-.009-.005zm-34.844 4.43c.106.115.211.231.302.351 1.655 1.882 2.58 4.242 2.593 6.656.002.444.007.901.031 1.346.252-.494.656-.915 1.172-1.193a2.71 2.71 0 0 1 1.942-.238c-.88-.857-1.724-1.717-2.551-2.568a2.75 2.75 0 0 1-.763-2.143c.084-1.043.197-2.08.342-3.112-.291.381-.694.678-1.162.869-.634.246-1.306.255-1.91.04l.004-.008zm89.53 26.422c-1.559-.875-3.517-.362-4.458 1.165-3.83 6.252-8.231 11.843-13.076 16.629a1.95 1.95 0 0 0-.581 1.49c.027.561.304 1.079.734 1.423a1.95 1.95 0 0 0 .517.29c6.619 2.49 13.006 4.441 18.992 5.792a1.96 1.96 0 0 0 1.57-.322c4.968-3.626 9.218-8.053 12.62-13.149.954-1.429.633-3.392-.736-4.467a2.9 2.9 0 0 0-.42-.281l-15.158-8.556-.004-.014zm-76.751-43.309a3.35 3.35 0 0 0-2.669-.261c-.884.287-1.58.907-1.967 1.746-2.562 5.578-4.108 11.524-4.611 17.668a2.01 2.01 0 0 0 .536 1.516c4.258 4.435 9.235 8.899 14.804 13.275.529.41 1.205.517 1.833.302.625-.228 1.09-.739 1.239-1.394 1.543-6.651 4.01-13.339 7.336-19.863.723-1.422.34-3.17-.909-4.155-.132-.109-.274-.199-.42-.282l-15.158-8.556-.014.004zm77.036 70.483a1.88 1.88 0 0 1 .422 1.316c-.019.216-.069.427-.153.618.305-.181.605-.376.906-.57 1.079-.7 2.398-.936 3.702-.681.793.161 1.564.299 2.304.431-.613-.503-.988-1.271-1.004-2.074a2.77 2.77 0 0 1 .175-1.026c-.799.664-1.628 1.3-2.465 1.909-.631.463-1.447.63-2.221.456l-1.669-.392.003.013zm21.794-14.72c-1.516-.852-3.46-.365-4.425 1.104-2.717 4.151-5.991 7.9-9.727 11.139-.437.379-.683.923-.67 1.509a1.97 1.97 0 0 0 .74 1.494c.252.198.559.337.884.383 14.956 2.357 25.542.318 29.797-5.742l.26-.365-16.864-9.514.005-.008zm-122.601-69.178l-.182.409c-2.936 6.799.822 16.926 10.592 28.521.109.129.207.218.318.303.533.424 1.24.515 1.887.265a1.91 1.91 0 0 0 1.199-1.484c.808-4.884 2.294-9.647 4.409-14.137.676-1.438.289-3.12-.948-4.087-.132-.108-.273-.199-.42-.281l-16.863-9.514.008.005zm134.347 84.005l.897 1.253c1.145-1.264 2.201-2.613 3.162-4.015-1.114 1.088-2.478 2.015-4.063 2.771l.004-.009zM98.737 124.6a38.14 38.14 0 0 0-1.748 4.787l1.505.118c-.18-1.747-.105-3.386.238-4.896l.005-.009zm118.658 63.058c.978 1.026 1.362 2.468 1.058 3.807 1.003-.97 2.426-1.374 3.778-1.081a4.13 4.13 0 0 1-1.045-3.789c-.444.432-.981.767-1.6.965-.704.229-1.47.264-2.182.103l-.009-.005zm-22.061-12.444c.974 1.013 1.346 2.436 1.055 3.772a4.12 4.12 0 0 1 3.755-1.06 4.18 4.18 0 0 1-1.042-3.775c-.462.444-1.026.786-1.661.974-.695.212-1.412.241-2.094.085l-.013.004zm-27.341-15.43c.957 1.002 1.337 2.431 1.042 3.775.998-.961 2.408-1.361 3.755-1.059-.957-1.003-1.338-2.432-1.055-3.772-.485.465-1.084.81-1.747 1.006-.667.182-1.348.208-2.008.053l.013-.003zm-27.341-15.431a4.17 4.17 0 0 1 1.047 3.767c.462-.444 1.026-.787 1.662-.975.694-.211 1.411-.24 2.093-.085-.965-1.007-1.346-2.436-1.055-3.771-.99.966-2.408 1.361-3.747 1.064zm-22.082-12.467a4.13 4.13 0 0 1 1.045 3.789 4.18 4.18 0 0 1 1.6-.964 4.1 4.1 0 0 1 2.183-.103c-.978-1.026-1.363-2.468-1.05-3.802-1.003.969-2.426 1.374-3.778 1.08zm110.895 38.635c-.491-.276-1.09-.317-1.639-.103a1.91 1.91 0 0 0-1.199 1.484c-.807 4.884-2.294 9.647-4.409 14.138-.675 1.437-.289 3.119.948 4.086a2.9 2.9 0 0 0 .42.281l16.864 9.514.182-.409c2.936-6.799-.822-16.926-10.592-28.521-.1-.124-.207-.218-.313-.312-.076-.065-.162-.114-.249-.162l-.013.004zM210.32 152.39c-.482-.27-1.054-.319-1.575-.135-.62.22-1.09.74-1.24 1.394-1.542 6.651-4.013 13.326-7.335 19.863-.724 1.422-.34 3.171.909 4.156a2.9 2.9 0 0 0 .42.281l15.158 8.556c.81.455 1.786.549 2.67.262a3.25 3.25 0 0 0 1.966-1.746 52.44 52.44 0 0 0 4.611-17.669c.039-.558-.152-1.108-.536-1.516-4.258-4.435-9.244-8.904-14.799-13.283-.077-.066-.163-.114-.249-.163zm-23.306-15.731a1.88 1.88 0 0 0-1.455-.17 1.92 1.92 0 0 0-1.182.926l-11.494 20.55c-.794 1.427-.437 3.263.855 4.272.132.109.274.199.42.282l20.442 11.534c.802.45 1.72.546 2.603.28.874-.27 1.59-.867 2.004-1.691 3.601-7.141 6.161-14.402 7.608-21.572.144-.726-.122-1.466-.707-1.919l.198-.354-.245.317c-5.905-4.361-12.304-8.544-19.022-12.441l-.025-.014zm-4.466-2.519l-.017-.01c-6.809-3.732-13.69-7.05-20.476-9.849-.698-.29-1.504-.141-2.049.371-5.344 4.97-10.187 10.949-14.383 17.757-.901 1.458-.564 3.351.783 4.403.132.108.274.199.421.281l20.442 11.534c.775.436 1.667.539 2.521.304a3.3 3.3 0 0 0 2.004-1.589l11.494-20.55c.462-.83.255-1.9-.491-2.49-.082-.057-.163-.114-.249-.162zm-25.501-11.809a1.53 1.53 0 0 0-.268-.127c-6.619-2.49-13.006-4.441-18.992-5.792-.542-.123-1.117-.003-1.561.327-4.969 3.626-9.219 8.052-12.634 13.152-.954 1.429-.633 3.392.736 4.467a2.89 2.89 0 0 0 .429.287l15.158 8.556c1.559.875 3.517.362 4.458-1.165 3.83-6.252 8.231-11.843 13.076-16.629.398-.39.613-.939.581-1.49a1.93 1.93 0 0 0-.735-1.423c-.081-.057-.162-.114-.248-.163zm-56.083-1.102l16.863 9.514c1.516.851 3.46.364 4.425-1.104 2.722-4.161 5.996-7.91 9.732-11.149a1.9 1.9 0 0 0 .665-1.5c-.013-.586-.292-1.14-.74-1.494-.26-.203-.563-.328-.892-.387-14.957-2.357-25.543-.318-29.797 5.741l-.26.365.004.014zm141.326 71.527c.18 1.747.096 3.381-.238 4.896.689-1.543 1.262-3.141 1.743-4.778l-1.505-.118zm-137.093-78.098a38.28 38.28 0 0 0-3.166 4.024c1.114-1.088 2.478-2.015 4.063-2.771l-.897-1.253zm109.354 12.458c8.258 10.269 12.798 23.015 12.792 35.923.004 1.943.692 3.795 1.961 5.211.572.639 1.13 1.282 1.666 1.923 6.774 8.04 10.807 15.561 11.687 21.801l.92.074c5.569-20.367-5.543-46.024-28.406-65.538l-.62.606zm-108.532-12.655l.531.752c5.761-2.489 14.268-2.946 24.62-1.313l2.507.431c1.866.344 3.795-.015 5.446-1.03 10.978-6.724 24.176-9.454 37.204-7.715l.202-.851c-28.494-9.458-56.086-5.647-70.51 9.726zm117.371 48.266c.88.857 1.724 1.717 2.551 2.568.553.571.83 1.351.763 2.143a52.01 52.01 0 0 1-.342 3.112c.292-.381.694-.678 1.158-.86.634-.246 1.306-.255 1.91-.041l-.735-.832c-1.399-1.569-2.167-3.602-2.162-5.745.001-.59-.007-1.185-.028-1.776-.253.494-.657.915-1.173 1.193-.62.321-1.308.4-1.942.238zm-90.946-47.805c.613.503.988 1.27 1.004 2.074.006.355-.049.699-.17 1.017.794-.655 1.623-1.291 2.464-1.909.631-.463 1.439-.634 2.213-.461l3.517.851a2.79 2.79 0 0 1-.804-2.212 2.75 2.75 0 0 1 .395-1.197 46.05 46.05 0 0 0-1.516.897 8.51 8.51 0 0 1-6.012 1.132l-1.087-.201-.004.009zm78.574 36.418c4.208 3.306 8.147 6.71 11.689 10.117.05.051.106.094.153.132.605.476 1.406.54 2.09.185.674-.359 1.073-1.055 1.02-1.834-.875-15.287-8.187-29.794-20.078-39.854l-.698.584c3.825 6.838 5.017 16.58 3.346 27.485-.108.7.169 1.401.719 1.835l1.745 1.354.014-.004zm-24.207-42.025c-14.74-4.96-30.879-3.689-44.327 3.511a1.89 1.89 0 0 0-1.016 1.542c-.057.672.218 1.315.73 1.716.205.16.442.282.708.352 5.39 1.448 11.012 3.31 16.71 5.544.66.257 1.408.132 1.955-.322 8.406-7.101 17.3-11.157 25.106-11.43l.143-.908-.009-.005zm18.699 38.433l1.013.739.06.034c.84.665 1.221 1.707 1.01 2.736l-.198.945c.292-.302.652-.542 1.061-.688.427-.157.875-.19 1.305-.13l-.99-.76c-.789-.614-1.172-1.612-1.021-2.595l.188-1.291c-.263.329-.615.597-1.021.778a2.79 2.79 0 0 1-1.416.227l.009.005zm-47.325-25.47c.372.447.589 1.012.633 1.604.017.294-.018.581-.084.862l.711-.669a2.75 2.75 0 0 1 2.905-.526l1.166.484c-.367-.478-.573-1.082-.572-1.695a2.62 2.62 0 0 1 .162-.92l-1.006.832c-.767.648-1.827.825-2.764.458l-1.133-.443-.018.013zm25.492 11.803a2.81 2.81 0 0 1 .607 2.181c.299-.253.652-.441 1.041-.551.376-.107.762-.129 1.134-.067-.511-.605-.726-1.396-.611-2.172-.606.5-1.399.725-2.171.609zm13.721-19.98l-10.536 18.828c-.472.848-.259 1.887.496 2.481.073.052.145.104.223.148 5.964 3.462 11.714 7.168 17.073 11.006.573.412 1.29.485 1.926.195a1.92 1.92 0 0 0 1.136-1.553c1.536-13.525-1.608-24.431-8.615-29.921a15.02 15.02 0 0 0-1.351-.963l-.356-.234.004.013zm-1.474-.805c-8.517-4.157-19.979-1.418-31.443 7.52-.477.369-.741.925-.746 1.523.003.604.282 1.18.746 1.544.132.108.287.195.444.26 6.052 2.592 12.192 5.597 18.238 8.912a1.94 1.94 0 0 0 2.624-.753l10.535-18.828-.38-.19-.018.012zm9.973 5.725l.264.216a57.81 57.81 0 0 1 7.541 7.596l1.153-1.136c-.991-.84-2.014-1.664-3.046-2.471-3.594-2.824-7.418-5.46-11.394-7.885 1.554 1.373 2.915 3.011 4.056 4.901l1.43-1.208-.004-.013zm-28.519-14.491l-.37 1.598c3.502.513 6.98 1.353 10.377 2.522l.322.112-.288 1.837c2.191.004 4.289.319 6.265.952-5.349-2.8-10.808-5.138-16.302-7.008l-.004-.013z"/><g stroke="#122315" stroke-width=".2" stroke-linejoin="round"><path d="M105.911 74.599l3.761-2.044 4.639 18.275-3.879 2.114-7.963-9.479 3.536 11.887-3.897 2.127-12.691-13.882 3.716-2.024 8.353 9.856-3.721-12.388 3.534-1.922 8.329 9.877-3.712-12.383-.004-.013zm11.799 5.184c-.956-5.431 2.361-10.052 7.858-11.031 5.524-.987 10.196 2.216 11.153 7.647s-2.334 10.045-7.858 11.031c-5.496.979-10.196-2.216-11.153-7.647zm14.82-2.637c-.558-3.163-3.201-5.056-6.279-4.502-3.06.542-4.884 3.23-4.327 6.393s3.2 5.056 6.252 4.51c3.086-.549 4.911-3.238 4.354-6.401zm22.269 9.005l-4.219-.178c.227-3.597-1.661-6.076-4.649-6.414l-.246 6.21-4.123-.169.742-18.274 5.891.242c3.881.158 6.347 2.53 6.209 6.029-.092 2.299-1.304 3.947-3.318 4.621 2.524 1.417 3.928 4.216 3.723 7.916l-.01.017zm-8.53-15.123l-.207 5.084 1.151.044c1.746.072 2.908-.877 2.974-2.418.059-1.568-1.046-2.609-2.819-2.673l-1.094-.046-.005.009zm21.318 7.098c3.795 2.017 5.323 5.975 4.146 11.197l-4.119-.825c.994-4.325-.309-7.225-3.804-8.359l-1.462 7.298-4.036-.813 3.575-17.921 4.036.813-1.301 6.502 6.23-5.507 4.575.922-7.858 6.705.018-.013zm30.334 5.199l-4.022-1.611-5.375 13.538-3.857-1.541 5.376-13.538-4.022-1.611 1.364-3.447 11.9 4.762-1.364 3.447zm.663 6.177c2.634-4.835 8.102-6.352 12.993-3.662 4.917 2.704 6.576 8.132 3.942 12.966s-8.077 6.366-12.993 3.662c-4.9-2.694-6.576-8.132-3.942-12.966zm13.203 7.254c1.535-2.818.653-5.947-2.092-7.454-2.727-1.498-5.819-.554-7.353 2.264s-.653 5.947 2.074 7.444c2.745 1.508 5.846.568 7.38-2.25l-.009-.005zm14.56 8.355l6.097 4.707-5.184 6.775c-2.303.137-4.554-.491-6.602-2.072-4.484-3.46-5.187-9.044-1.864-13.39 3.361-4.392 8.931-5.057 13.365-1.648 1.157.888 1.974 1.858 2.457 2.98l-2.693 3.519c-.395-1.425-1.031-2.475-2.089-3.296-2.547-1.964-5.678-1.519-7.661 1.069-1.998 2.614-1.629 5.831.898 7.772.704.542 1.471.871 2.289 1.046l1.809-2.356-2.983-2.3 2.158-2.819.003.013zm20.713 13.562l-4.819-4.909-2.467 2.442 3.904 3.974-2.574 2.553-3.904-3.975-2.666 2.636 4.825 4.901-2.624 2.603-7.716-7.852 12.955-12.836 7.716 7.852-2.625 2.602-.005.009zm10.902 13.83l-2.615-3.467-11.568 8.801-2.502-3.324 11.568-8.801-2.616-3.467 2.944-2.242 7.733 10.258-2.944 2.242zm10.944 11.902l1.903 3.67-16.137 8.437-1.903-3.669 6.644-3.468-2.918-5.624-6.644 3.468-1.904-3.669 16.137-8.438 1.904 3.669-6.202 3.241 2.919 5.624 6.201-3.241zm4.051 22.783l-1.82-6.643-3.338.92 1.471 5.379-3.485.961-1.472-5.379-3.606.995 1.815 6.652-3.567.984-2.908-10.638 17.549-4.84 2.909 10.637-3.567.985.019-.013zm-12.958 20.886l-.101-4.247c3.587-.007 5.934-2.05 6.077-5.07l-6.187.148-.093-4.14 18.199-.421.13 5.921c.091 3.9-2.115 6.522-5.595 6.601-2.291.053-4.003-1.056-4.8-3.036-1.243 2.618-3.935 4.206-7.63 4.244zm14.477-9.518l-5.073.116.027 1.15c.038 1.759 1.052 2.862 2.587 2.827 1.557-.035 2.516-1.21 2.479-2.992l-.02-1.101zM73.135 121.319c5.318.988 8.556 5.713 7.562 11.093-.261 1.444-.797 2.63-1.726 3.812l-4.429-.818c1.215-.862 1.996-2.104 2.256-3.525.565-3.066-1.326-5.763-4.445-6.334-3.097-.569-5.837 1.265-6.402 4.332-.26 1.421.028 2.854.859 4.104l-4.398-.811c-.458-1.575-.532-2.843-.277-4.255.978-5.333 5.673-8.568 10.991-7.58l.01-.018zm7.42 28.308l.434 4.116-18.103 1.895-.434-4.116 7.445-.782-.651-6.305-7.445.782-.434-4.115 18.103-1.895.429 4.124-6.952.73.651 6.304 6.952-.729.005-.009zm-12.097 23.832l2.882-2.05-2.155-5.979-3.525.28-1.541-4.26 19.225-.356 1.646 4.558-15.001 12.084-1.541-4.26.01-.017zm4.461-8.34l1.485 4.116 6.717-4.757-8.202.641zm20.854 17.353l2.148 3.534-15.521 9.545-2.128-3.489 5.652-11.679-9.292 5.706-2.148-3.534 15.521-9.544 2.23 3.671-6.027 11.661 9.556-5.876.009.005zm3.7 17.26l5.107 5.774-6.357 5.674c-2.283-.306-4.387-1.34-6.101-3.278-3.759-4.257-3.395-9.866.686-13.502 4.127-3.678 9.729-3.281 13.433.91.97 1.101 1.587 2.186 1.855 3.392l-3.303 2.949c-.118-1.474-.551-2.626-1.429-3.63-2.129-2.41-5.298-2.566-7.726-.397-2.451 2.189-2.696 5.413-.579 7.805.593.662 1.282 1.128 2.058 1.462l2.22-1.979-2.499-2.822 2.644-2.354-.009-.004zm19.556 13.126l-5.224-4.466-2.242 2.647 4.23 3.613-2.34 2.762-4.23-3.612-2.429 2.86 5.224 4.467-2.387 2.826-8.366-7.15 11.799-13.928 8.366 7.15-2.396 2.823-.005.008zm19.034 12.605l-3.696-2.257-7.539 12.448-3.545-2.161 7.538-12.448-3.704-2.261 1.922-3.168 10.945 6.679-1.921 3.168zm13.662 2.47l3.75 1.732-7.606 16.611-3.742-1.726 3.128-6.84-5.741-2.644-3.128 6.839-3.751-1.731 7.606-16.611 3.743 1.726-2.922 6.387 5.741 2.645 2.922-6.388zm16.965 9.936l-6.546-2.051-1.032 3.315 5.305 1.661-1.078 3.46-5.304-1.661-1.115 3.587 6.554 2.057-1.099 3.538-10.483-3.285 5.427-17.449 10.483 3.285-1.099 3.539-.013.004zm27.87.386l4.264.362-6.102 17.83-4.392-.376-1.48-12.312-3.541 11.888-4.419-.369-3.02-18.603 4.212.354 1.588 12.849 3.657-12.401 4.005.34 1.566 12.848 3.657-12.402.005-.008zm6.105 9.264c-.788-5.451 2.667-9.972 8.191-10.777 5.551-.812 10.12 2.537 10.907 7.987s-2.644 9.973-8.19 10.776c-5.524.805-10.12-2.536-10.908-7.986zm14.9-2.172c-.46-3.177-3.033-5.155-6.133-4.704-3.073.443-4.987 3.07-4.524 6.26.459 3.176 3.037 5.146 6.11 4.703 3.1-.451 5.015-3.078 4.555-6.255l-.008-.004zm24.356 1.244l-3.909 1.62c-1.295-3.361-4.029-4.828-6.891-3.869l2.351 5.749-3.814 1.571-6.92-16.898 5.458-2.25c3.598-1.488 6.824-.358 8.147 2.871.875 2.126.447 4.134-1.1 5.594 2.883.222 5.32 2.181 6.673 5.62l.005-.008zm-14.033-10.151l1.926 4.704 1.059-.439c1.616-.67 2.275-2.015 1.699-3.44-.596-1.447-2.036-1.927-3.671-1.244l-1.013.419zm21.099 1.239l5.343-3.892 2.164 2.998-8.684 6.32-10.674-14.805 3.341-2.428 8.515 11.799-.005.008zm14.844-23.074c4.267 3.384 4.798 8.644 1.307 13.088l-3.636 4.624-14.293-11.329 3.636-4.624c3.491-4.444 8.71-5.148 12.977-1.764l.009.005zm-1.7 10.935c1.971-2.505 1.599-5.575-.937-7.578s-5.588-1.661-7.563.852l-.971 1.237 8.495 6.735.971-1.238.005-.008z"/></g></g></g><defs><clipPath id="A"><path fill="#fff" transform="matrix(.871958 .489581 -.486314 .873784 106.02 0)" d="M0 0h270.632v218.007H0z"/></clipPath></defs></svg>