<svg width="290" height="215" viewBox="0 0 290 215" fill="none" xmlns="http://www.w3.org/2000/svg">
<g clip-path="url(#clip0_9002_102385)">
<path d="M259.448 -0.000135886L0 47.3013L30.2962 214.942L289.744 167.641L259.448 -0.000135886Z" fill="#4C8FF2"/>
<path d="M60.4645 73.411C61.7224 80.3715 57.6268 86.2382 50.8527 87.4732C49.3952 87.7389 47.9376 87.765 46.4791 87.4862L48.2668 97.3785L40.8322 98.7339L34.8477 65.6191L45.0087 63.7666C52.8209 62.3423 59.1542 66.2205 60.454 73.413L60.4645 73.411ZM52.7915 74.7664C52.2178 71.592 49.4687 69.8056 46.0293 70.4326L43.4916 70.8953L45.287 80.8297C46.2126 81.0967 47.2421 81.1595 48.2802 80.9703C51.4366 80.3948 53.3404 77.8037 52.7915 74.7664Z" fill="#122315"/>
<path d="M92.6949 89.2793L85.0715 90.6692C84.0281 84.1163 79.6756 80.4107 74.1962 81.0176L76.2317 92.2808L68.797 93.6362L62.8125 60.5215L73.4454 58.5829C80.4502 57.3059 85.8074 60.5777 86.9528 66.9159C87.7056 71.0816 86.1945 74.5271 82.8684 76.5606C87.9512 78.0741 91.5752 82.5442 92.6949 89.2793ZM71.4002 65.5464L73.0679 74.7743L75.1337 74.3976C78.29 73.8222 79.9774 71.6517 79.4743 68.8676C78.9711 66.0834 76.5699 64.6039 73.3716 65.187L71.4002 65.5464Z" fill="#122315"/>
<path d="M97.7931 88.3506L91.8086 55.2358L99.2433 53.8804L105.228 86.9951L97.7931 88.3506Z" fill="#122315"/>
<path d="M106.997 69.5704C105.194 59.5938 111.235 51.0631 121.302 49.2278C131.368 47.3925 140.008 53.2467 141.811 63.2233C143.614 73.1999 137.628 81.7316 127.509 83.5764C117.39 85.4213 108.802 79.5576 106.997 69.5704ZM134.135 64.6227C133.083 58.8013 128.233 55.339 122.581 56.3694C116.929 57.3999 113.653 62.3438 114.705 68.1652C115.757 73.9867 120.607 77.449 126.206 76.4281C131.806 75.4072 135.187 70.4442 134.135 64.6227Z" fill="#122315"/>
<path d="M173.609 74.5283L165.986 75.9182C164.942 69.3653 160.59 65.6598 155.11 66.2666L157.146 77.5298L149.711 78.8853L143.727 45.7705L154.359 43.832C161.364 42.5549 166.721 45.8267 167.867 52.1649C168.62 56.3306 167.109 59.7761 163.782 61.8096C168.865 63.3231 172.489 67.7932 173.609 74.5283ZM152.314 50.7954L153.982 60.0233L156.048 59.6467C159.204 59.0712 160.891 56.9008 160.388 54.1166C159.885 51.3324 157.484 49.8529 154.286 50.436L152.314 50.7954Z" fill="#122315"/>
<path d="M178.707 73.5996L172.723 40.4849L180.157 39.1294L186.142 72.2442L178.707 73.5996Z" fill="#122315"/>
<path d="M208.424 40.9154L200.612 42.3397L205.383 68.7366L197.906 70.0997L193.136 43.7028L185.323 45.127L184.109 38.4092L207.21 34.1975L208.424 40.9154Z" fill="#122315"/>
<path d="M238.961 28.408L231.731 50.7943L234.031 63.5235L226.555 64.8866L224.254 52.1574L209.652 33.7515L218.073 32.2163L226.881 45.1751L230.541 29.9432L238.961 28.408Z" fill="#122315"/>
<path d="M95.0231 156.19C96.2791 163.14 92.1854 169.017 85.4113 170.252C83.9538 170.518 82.4962 170.544 81.0377 170.266L82.8254 180.158L75.3908 181.513L69.4062 148.398L79.5673 146.546C87.3795 145.122 93.7128 149 95.0126 156.192L95.0231 156.19ZM87.3501 157.546C86.7764 154.371 84.0254 152.574 80.5859 153.201L78.0483 153.664L79.8437 163.598C80.7693 163.865 81.7988 163.928 82.8369 163.739C85.9933 163.164 87.8971 160.572 87.3501 157.546Z" fill="#122315"/>
<path d="M109.565 168.343L121.466 166.173L122.68 172.891L103.344 176.417L97.3594 143.302L104.794 141.946L109.565 168.343Z" fill="#122315"/>
<path d="M148.225 168.234L145.416 162.341L133.986 164.425L133.419 170.933L125.281 172.417L130.496 137.26L139.2 135.674L156.383 166.747L148.246 168.23L148.225 168.234ZM134.581 157.529L142.436 156.097L135.927 142.382L134.581 157.529Z" fill="#122315"/>
<path d="M173.399 129.439L180.833 128.084L186.818 161.199L179.478 162.537L163.332 145.001L166.915 164.827L159.481 166.183L153.496 133.068L161.214 131.661L177.083 149.825L173.399 129.439Z" fill="#122315"/>
<path d="M208.313 130.012L195.94 132.268L197.078 138.564L207.102 136.737L208.292 143.317L198.267 145.145L199.498 151.958L211.872 149.702L213.086 156.42L193.277 160.031L187.293 126.917L207.101 123.305L208.315 130.023L208.313 130.012Z" fill="#122315"/>
<path d="M235.065 125.136L227.253 126.56L232.023 152.957L224.547 154.32L219.776 127.923L211.964 129.347L210.75 122.629L233.851 118.418L235.065 125.136Z" fill="#122315"/>
<path d="M161.58 95.5349L127.512 101.746L127.738 103L161.807 96.7888L161.58 95.5349Z" fill="#122315"/>
<path d="M164.463 111.491L130.395 117.702L130.621 118.956L164.69 112.745L164.463 111.491Z" fill="#122315"/>
<path d="M277.576 160.021L39.0065 203.516L12.1523 54.9219L250.722 11.4268L277.576 160.021ZM40.038 202.032L276.102 158.994L249.703 12.9199L13.6394 55.958L40.0361 202.022L40.038 202.032Z" fill="#122315"/>
</g>
<defs>
<clipPath id="clip0_9002_102385">
<rect width="263.724" height="170.356" fill="white" transform="matrix(0.983783 -0.179359 0.17784 0.984059 0 47.3013)"/>
</clipPath>
</defs>
</svg>
